<?xml version="1.0" encoding="UTF-8" standalone="no"?>
<!DOCTYPE svg PUBLIC "-//W3C//DTD SVG 1.1//EN" "http://www.w3.org/Graphics/SVG/1.1/DTD/svg11.dtd">
<svg width="100%" height="100%" viewBox="0 0 1517 249" version="1.1" xmlns="http://www.w3.org/2000/svg" xmlns:xlink="http://www.w3.org/1999/xlink" xml:space="preserve" xmlns:serif="http://www.serif.com/" style="fill-rule:evenodd;clip-rule:evenodd;stroke-linejoin:round;stroke-miterlimit:2;">
    <g transform="matrix(1,0,0,1,-241.992187,-840.663891)">
        <g transform="matrix(1,0,0,1,112.367813,526)">
            <path d="M741.577,315.299C778.948,314.5 817.302,315.154 854.703,315.198C907.546,315.261 974.24,306.417 1007.1,358.35C1025.63,387.627 1025.11,429.171 1023.48,462.873C1022.07,490.653 1012.05,520.457 990.332,539.021C955.54,568.748 908.727,562.604 865.975,562.607L734.478,562.757L734.509,324.798L741.577,315.299ZM798.728,507.525L868.391,507.591C894.018,507.6 925.92,512.541 945.238,493.366L945.553,493.051C953.596,483.097 957.968,470.597 958.721,457.829C960.19,432.935 962.261,399.827 940.768,382.322C923.361,368.145 896.35,371.43 875.154,371.47L798.83,371.563L798.728,507.525Z" style="fill:rgb(2,27,81);fill-rule:nonzero;"/>
        </g>
        <g transform="matrix(1,0,0,1,149.367813,526)">
            <path d="M166.266,315.62C171.083,314.985 183.533,315.232 188.774,315.236L231.376,315.287L374.387,315.27L374.367,371.543L233.187,371.602C216.101,371.628 199.035,371.615 181.974,371.393C174.859,371.56 165.676,372.822 160.74,378.373C151.382,388.897 154.629,406.964 169.063,410.877C180.262,413.913 193.74,412.794 205.281,412.766L275.282,412.641C308.507,412.601 344.732,409.129 370.922,434.196C398.183,460.289 397.565,514.615 371.747,541.409C355.438,558.336 332.86,562.424 310.32,562.527L100.511,562.617L100.497,507.709L248.636,507.678C268.608,507.647 288.56,508.029 308.558,507.561C331.175,507.031 334.09,473.939 314.695,467.466C306.35,464.681 290.857,465.876 281.343,465.864L206.828,465.89C187.782,465.887 172.186,466.814 152.298,463.583C93.82,454.082 77.274,390.12 107.308,344.43C118.822,326.913 145.493,318.287 166.266,315.62Z" style="fill:rgb(2,27,81);fill-rule:nonzero;"/>
        </g>
        <g transform="matrix(1,0,0,1,87.367813,526)">
            <path d="M1057.26,315.306C1104.49,314.756 1152.04,315.348 1199.34,315.159C1224.45,315.88 1250.41,313.471 1275.35,316.197C1310.45,320.032 1339.21,345.238 1343.52,380.642C1350.57,438.365 1331.89,474.993 1272.6,483.418C1279.32,489.277 1291.56,502.315 1298.24,508.957L1352.08,562.552L1269.89,562.639C1260.9,554.634 1248.95,541.927 1240.14,533.073C1220.15,513.055 1200.33,492.863 1180.69,472.502C1168.83,460.404 1157.17,448.121 1145.7,435.657C1170.54,435.142 1195.19,436.074 1220.63,435.676C1248.02,435.246 1283.31,441.977 1283.72,402.242C1284.02,372.708 1264.24,369.655 1240.02,370.249C1231.21,370.464 1220.8,370.245 1211.64,370.257L1122.59,370.346L1122.48,562.478L1057.29,562.693C1056.76,528.696 1057.29,493.144 1057.29,459.03L1057.26,315.306Z" style="fill:rgb(2,27,81);fill-rule:nonzero;"/>
        </g>
        <g transform="matrix(1,0,0,1,129.367813,526)">
            <path d="M399.198,315.293L478.02,315.276C503.34,345.946 531.995,380.426 558.635,409.675C567.396,400.612 581.175,383.079 589.438,373.027C604.826,354.307 621.241,334.912 636.124,315.889C658.552,314.928 692.56,315.49 715.271,315.961C691.961,342.631 668.78,370.894 645.896,398.075L591.555,463.304L591.564,562.478L526.733,562.597L526.738,463.793L399.198,315.293Z" style="fill:rgb(2,27,81);fill-rule:nonzero;"/>
        </g>
        <g transform="matrix(1,0,0,1,79.367813,526)">
            <path d="M1457.35,518.918C1455.8,523.382 1436.72,556.527 1433.34,562.532L1364.96,562.526C1369.42,553.24 1377.08,540.278 1382.17,530.994L1413.09,474.46C1440.6,422.433 1469.95,367.93 1495.91,315.276L1549.62,315.314C1578.16,374.364 1610.89,432.936 1640.94,491.277C1652.16,513.059 1668.78,541.07 1678.64,562.466L1573.29,562.55L1480.65,562.471C1487.82,547.433 1503.22,522.301 1511.88,506.813C1532.3,506.788 1557.83,506.111 1577.83,507.089L1578.58,506.038C1560.25,472.384 1542.82,438.109 1524.82,404.27C1523.9,402.551 1523.06,400.739 1522.06,399.072L1482.55,473.146C1475.14,487.066 1465.61,505.708 1457.35,518.918Z" style="fill:url(#_Linear1);"/>
        </g>
    </g>
    <defs>
        <linearGradient id="_Linear1" x1="0" y1="0" x2="1" y2="0" gradientUnits="userSpaceOnUse" gradientTransform="matrix(142.8627,-147.7767,147.7767,142.8627,1485.3423,542.42627)"><stop offset="0" style="stop-color:rgb(0,40,184);stop-opacity:1"/><stop offset="1" style="stop-color:rgb(1,126,255);stop-opacity:1"/></linearGradient>
    </defs>
</svg>
