<?xml version="1.0" encoding="UTF-8" standalone="no"?>
<!DOCTYPE svg PUBLIC "-//W3C//DTD SVG 1.1//EN" "http://www.w3.org/Graphics/SVG/1.1/DTD/svg11.dtd">
<svg width="100%" height="100%" viewBox="0 0 1517 321" version="1.1" xmlns="http://www.w3.org/2000/svg" xmlns:xlink="http://www.w3.org/1999/xlink" xml:space="preserve" xmlns:serif="http://www.serif.com/" style="fill-rule:evenodd;clip-rule:evenodd;stroke-linejoin:round;stroke-miterlimit:2;">
    <g transform="matrix(1,0,0,1,-241.992187,-840.663891)">
        <g>
            <g transform="matrix(1,0,0,1,149.367813,526)">
                <g transform="matrix(1,0,0,1,-37,0)">
                    <path d="M741.577,315.299C778.948,314.5 817.302,315.154 854.703,315.198C907.546,315.261 974.24,306.417 1007.1,358.35C1025.63,387.627 1025.11,429.171 1023.48,462.873C1022.07,490.653 1012.05,520.457 990.332,539.021C955.54,568.748 908.727,562.604 865.975,562.607L734.478,562.757L734.509,324.798L741.577,315.299ZM798.728,507.525L868.391,507.591C894.018,507.6 925.92,512.541 945.238,493.366L945.553,493.051C953.596,483.097 957.968,470.597 958.721,457.829C960.19,432.935 962.261,399.827 940.768,382.322C923.361,368.145 896.35,371.43 875.154,371.47L798.83,371.563L798.728,507.525Z" style="fill:rgb(2,27,81);fill-rule:nonzero;"/>
                </g>
                <path d="M166.266,315.62C171.083,314.985 183.533,315.232 188.774,315.236L231.376,315.287L374.387,315.27L374.367,371.543L233.187,371.602C216.101,371.628 199.035,371.615 181.974,371.393C174.859,371.56 165.676,372.822 160.74,378.373C151.382,388.897 154.629,406.964 169.063,410.877C180.262,413.913 193.74,412.794 205.281,412.766L275.282,412.641C308.507,412.601 344.732,409.129 370.922,434.196C398.183,460.289 397.565,514.615 371.747,541.409C355.438,558.336 332.86,562.424 310.32,562.527L100.511,562.617L100.497,507.709L248.636,507.678C268.608,507.647 288.56,508.029 308.558,507.561C331.175,507.031 334.09,473.939 314.695,467.466C306.35,464.681 290.857,465.876 281.343,465.864L206.828,465.89C187.782,465.887 172.186,466.814 152.298,463.583C93.82,454.082 77.274,390.12 107.308,344.43C118.822,326.913 145.493,318.287 166.266,315.62Z" style="fill:rgb(2,27,81);fill-rule:nonzero;"/>
                <g transform="matrix(1,0,0,1,-62,0)">
                    <path d="M1057.26,315.306C1104.49,314.756 1152.04,315.348 1199.34,315.159C1224.45,315.88 1250.41,313.471 1275.35,316.197C1310.45,320.032 1339.21,345.238 1343.52,380.642C1350.57,438.365 1331.89,474.993 1272.6,483.418C1279.32,489.277 1291.56,502.315 1298.24,508.957L1352.08,562.552L1269.89,562.639C1260.9,554.634 1248.95,541.927 1240.14,533.073C1220.15,513.055 1200.33,492.863 1180.69,472.502C1168.83,460.404 1157.17,448.121 1145.7,435.657C1170.54,435.142 1195.19,436.074 1220.63,435.676C1248.02,435.246 1283.31,441.977 1283.72,402.242C1284.02,372.708 1264.24,369.655 1240.02,370.249C1231.21,370.464 1220.8,370.245 1211.64,370.257L1122.59,370.346L1122.48,562.478L1057.29,562.693C1056.76,528.696 1057.29,493.144 1057.29,459.03L1057.26,315.306Z" style="fill:rgb(2,27,81);fill-rule:nonzero;"/>
                </g>
                <g transform="matrix(1,0,0,1,-20,0)">
                    <path d="M399.198,315.293L478.02,315.276C503.34,345.946 531.995,380.426 558.635,409.675C567.396,400.612 581.175,383.079 589.438,373.027C604.826,354.307 621.241,334.912 636.124,315.889C658.552,314.928 692.56,315.49 715.271,315.961C691.961,342.631 668.78,370.894 645.896,398.075L591.555,463.304L591.564,562.478L526.733,562.597L526.738,463.793L399.198,315.293Z" style="fill:rgb(2,27,81);fill-rule:nonzero;"/>
                </g>
                <g transform="matrix(1,0,0,1,-70,0)">
                    <path d="M1457.35,518.918C1455.8,523.382 1436.72,556.527 1433.34,562.532L1364.96,562.526C1369.42,553.24 1377.08,540.278 1382.17,530.994L1413.09,474.46C1440.6,422.433 1469.95,367.93 1495.91,315.276L1549.62,315.314C1578.16,374.364 1610.89,432.936 1640.94,491.277C1652.16,513.059 1668.78,541.07 1678.64,562.466L1573.29,562.55L1480.65,562.471C1487.82,547.433 1503.22,522.301 1511.88,506.813C1532.3,506.788 1557.83,506.111 1577.83,507.089L1578.58,506.038C1560.25,472.384 1542.82,438.109 1524.82,404.27C1523.9,402.551 1523.06,400.739 1522.06,399.072L1482.55,473.146C1475.14,487.066 1465.61,505.708 1457.35,518.918Z" style="fill:url(#_Linear1);"/>
                </g>
            </g>
            <g transform="matrix(1,0,0,1,56.575934,-144)">
                <g>
                    <g transform="matrix(50,0,0,50,263,1305)">
                        <path d="M0.096,-0L0.096,-0.728L0.176,-0.728L0.508,-0.233C0.517,-0.22 0.527,-0.204 0.539,-0.185C0.55,-0.167 0.562,-0.147 0.575,-0.126C0.587,-0.104 0.6,-0.082 0.612,-0.058L0.601,-0.058C0.599,-0.083 0.597,-0.106 0.596,-0.129C0.595,-0.151 0.595,-0.173 0.594,-0.193C0.594,-0.213 0.594,-0.23 0.594,-0.246L0.594,-0.728L0.663,-0.728L0.663,-0L0.582,-0L0.273,-0.46C0.261,-0.478 0.249,-0.497 0.237,-0.516C0.224,-0.535 0.211,-0.557 0.197,-0.581C0.182,-0.606 0.165,-0.634 0.146,-0.667L0.16,-0.667C0.161,-0.637 0.162,-0.61 0.163,-0.583C0.164,-0.557 0.164,-0.534 0.165,-0.513C0.166,-0.492 0.166,-0.475 0.166,-0.46L0.166,-0L0.096,-0Z" style="fill-rule:nonzero;"/>
                    </g>
                    <g transform="matrix(50,0,0,50,350.971987,1305)">
                        <path d="M0.315,0.012C0.265,0.012 0.222,0.004 0.185,-0.012C0.149,-0.029 0.12,-0.052 0.099,-0.081C0.078,-0.111 0.066,-0.145 0.063,-0.184L0.134,-0.184C0.137,-0.155 0.146,-0.131 0.163,-0.111C0.179,-0.091 0.201,-0.076 0.227,-0.066C0.254,-0.056 0.283,-0.051 0.315,-0.051C0.351,-0.051 0.383,-0.057 0.411,-0.069C0.439,-0.081 0.461,-0.098 0.477,-0.119C0.493,-0.141 0.501,-0.166 0.501,-0.195C0.501,-0.219 0.494,-0.239 0.482,-0.256C0.469,-0.272 0.452,-0.286 0.429,-0.297C0.406,-0.309 0.38,-0.319 0.349,-0.327L0.263,-0.353C0.205,-0.37 0.161,-0.393 0.129,-0.424C0.098,-0.454 0.083,-0.493 0.083,-0.539C0.083,-0.578 0.093,-0.613 0.114,-0.643C0.135,-0.673 0.164,-0.696 0.2,-0.713C0.236,-0.729 0.276,-0.738 0.321,-0.738C0.367,-0.738 0.407,-0.729 0.442,-0.712C0.477,-0.696 0.505,-0.673 0.526,-0.644C0.546,-0.615 0.557,-0.582 0.559,-0.545L0.491,-0.545C0.487,-0.585 0.469,-0.617 0.438,-0.64C0.406,-0.664 0.367,-0.675 0.319,-0.675C0.286,-0.675 0.257,-0.67 0.231,-0.658C0.206,-0.647 0.186,-0.631 0.172,-0.611C0.158,-0.59 0.15,-0.567 0.15,-0.542C0.15,-0.517 0.157,-0.496 0.172,-0.479C0.186,-0.462 0.204,-0.448 0.226,-0.437C0.248,-0.427 0.271,-0.418 0.294,-0.411L0.37,-0.389C0.394,-0.383 0.417,-0.374 0.44,-0.364C0.464,-0.354 0.485,-0.341 0.504,-0.326C0.524,-0.311 0.539,-0.293 0.551,-0.271C0.563,-0.25 0.568,-0.224 0.568,-0.194C0.568,-0.155 0.558,-0.12 0.538,-0.088C0.518,-0.057 0.489,-0.033 0.451,-0.015C0.413,0.003 0.368,0.012 0.315,0.012Z" style="fill-rule:nonzero;"/>
                    </g>
                    <g transform="matrix(50,0,0,50,432.563814,1305)">
                        <path d="M0.028,-0L0.294,-0.728L0.376,-0.728L0.646,-0L0.572,-0L0.399,-0.476C0.39,-0.502 0.379,-0.533 0.368,-0.568C0.356,-0.603 0.343,-0.646 0.328,-0.696L0.342,-0.696C0.327,-0.646 0.314,-0.603 0.302,-0.567C0.291,-0.531 0.28,-0.501 0.271,-0.476L0.101,-0L0.028,-0ZM0.152,-0.216L0.152,-0.278L0.521,-0.278L0.521,-0.216L0.152,-0.216Z" style="fill-rule:nonzero;"/>
                    </g>
                    <g transform="matrix(50,0,0,50,514.538149,1305)">
                        <path d="M0.281,-0.229C0.257,-0.229 0.234,-0.235 0.214,-0.247C0.193,-0.26 0.177,-0.276 0.165,-0.296C0.153,-0.316 0.146,-0.339 0.146,-0.364C0.146,-0.389 0.153,-0.411 0.165,-0.432C0.177,-0.452 0.193,-0.468 0.214,-0.48C0.234,-0.492 0.257,-0.499 0.281,-0.499C0.306,-0.499 0.329,-0.492 0.349,-0.48C0.369,-0.468 0.385,-0.452 0.398,-0.432C0.41,-0.411 0.416,-0.389 0.416,-0.364C0.416,-0.339 0.41,-0.316 0.398,-0.296C0.385,-0.276 0.369,-0.26 0.349,-0.247C0.329,-0.235 0.306,-0.229 0.281,-0.229Z" style="fill-rule:nonzero;"/>
                    </g>
                    <g transform="matrix(50,0,0,50,592.663149,1305)">
                        <rect x="0.096" y="-0.728" width="0.069" height="0.728" style="fill-rule:nonzero;"/>
                    </g>
                    <g transform="matrix(50,0,0,50,655.765382,1305)">
                        <path d="M0.311,-0L0.134,-0L0.134,-0.062L0.307,-0.062C0.369,-0.062 0.421,-0.074 0.463,-0.098C0.504,-0.123 0.536,-0.157 0.556,-0.203C0.577,-0.248 0.588,-0.302 0.588,-0.366C0.588,-0.428 0.578,-0.482 0.557,-0.526C0.537,-0.571 0.507,-0.605 0.467,-0.629C0.427,-0.653 0.378,-0.665 0.319,-0.665L0.132,-0.665L0.132,-0.728L0.324,-0.728C0.393,-0.728 0.453,-0.713 0.502,-0.684C0.551,-0.655 0.589,-0.614 0.616,-0.56C0.642,-0.506 0.655,-0.441 0.655,-0.366C0.655,-0.289 0.642,-0.224 0.615,-0.169C0.588,-0.115 0.549,-0.073 0.498,-0.044C0.446,-0.015 0.384,-0 0.311,-0ZM0.166,-0.728L0.166,-0L0.096,-0L0.096,-0.728L0.166,-0.728Z" style="fill-rule:nonzero;"/>
                    </g>
                    <g transform="matrix(50,0,0,50,741.719166,1305)">
                        <path d="M0.096,-0L0.096,-0.728L0.334,-0.728C0.385,-0.728 0.428,-0.718 0.463,-0.7C0.498,-0.681 0.524,-0.655 0.542,-0.622C0.559,-0.589 0.568,-0.551 0.568,-0.508C0.568,-0.466 0.559,-0.428 0.542,-0.396C0.524,-0.364 0.498,-0.338 0.463,-0.32C0.428,-0.302 0.385,-0.293 0.334,-0.293L0.135,-0.293L0.135,-0.355L0.331,-0.355C0.369,-0.355 0.4,-0.361 0.425,-0.374C0.45,-0.387 0.468,-0.404 0.481,-0.427C0.493,-0.45 0.499,-0.477 0.499,-0.508C0.499,-0.54 0.493,-0.568 0.481,-0.591C0.468,-0.615 0.449,-0.633 0.425,-0.646C0.4,-0.659 0.368,-0.666 0.33,-0.666L0.166,-0.666L0.166,-0L0.096,-0ZM0.519,-0L0.342,-0.329L0.42,-0.329L0.599,-0L0.519,-0Z" style="fill-rule:nonzero;"/>
                    </g>
                    <g transform="matrix(50,0,0,50,823.424924,1305)">
                        <path d="M0.281,-0.229C0.257,-0.229 0.234,-0.235 0.214,-0.247C0.193,-0.26 0.177,-0.276 0.165,-0.296C0.153,-0.316 0.146,-0.339 0.146,-0.364C0.146,-0.389 0.153,-0.411 0.165,-0.432C0.177,-0.452 0.193,-0.468 0.214,-0.48C0.234,-0.492 0.257,-0.499 0.281,-0.499C0.306,-0.499 0.329,-0.492 0.349,-0.48C0.369,-0.468 0.385,-0.452 0.398,-0.432C0.41,-0.411 0.416,-0.389 0.416,-0.364C0.416,-0.339 0.41,-0.316 0.398,-0.296C0.385,-0.276 0.369,-0.26 0.349,-0.247C0.329,-0.235 0.306,-0.229 0.281,-0.229Z" style="fill-rule:nonzero;"/>
                    </g>
                    <g transform="matrix(50,0,0,50,901.549924,1305)">
                        <path d="M0.315,0.012C0.265,0.012 0.222,0.004 0.185,-0.012C0.149,-0.029 0.12,-0.052 0.099,-0.081C0.078,-0.111 0.066,-0.145 0.063,-0.184L0.134,-0.184C0.137,-0.155 0.146,-0.131 0.163,-0.111C0.179,-0.091 0.201,-0.076 0.227,-0.066C0.254,-0.056 0.283,-0.051 0.315,-0.051C0.351,-0.051 0.383,-0.057 0.411,-0.069C0.439,-0.081 0.461,-0.098 0.477,-0.119C0.493,-0.141 0.501,-0.166 0.501,-0.195C0.501,-0.219 0.494,-0.239 0.482,-0.256C0.469,-0.272 0.452,-0.286 0.429,-0.297C0.406,-0.309 0.38,-0.319 0.349,-0.327L0.263,-0.353C0.205,-0.37 0.161,-0.393 0.129,-0.424C0.098,-0.454 0.083,-0.493 0.083,-0.539C0.083,-0.578 0.093,-0.613 0.114,-0.643C0.135,-0.673 0.164,-0.696 0.2,-0.713C0.236,-0.729 0.276,-0.738 0.321,-0.738C0.367,-0.738 0.407,-0.729 0.442,-0.712C0.477,-0.696 0.505,-0.673 0.526,-0.644C0.546,-0.615 0.557,-0.582 0.559,-0.545L0.491,-0.545C0.487,-0.585 0.469,-0.617 0.438,-0.64C0.406,-0.664 0.367,-0.675 0.319,-0.675C0.286,-0.675 0.257,-0.67 0.231,-0.658C0.206,-0.647 0.186,-0.631 0.172,-0.611C0.158,-0.59 0.15,-0.567 0.15,-0.542C0.15,-0.517 0.157,-0.496 0.172,-0.479C0.186,-0.462 0.204,-0.448 0.226,-0.437C0.248,-0.427 0.271,-0.418 0.294,-0.411L0.37,-0.389C0.394,-0.383 0.417,-0.374 0.44,-0.364C0.464,-0.354 0.485,-0.341 0.504,-0.326C0.524,-0.311 0.539,-0.293 0.551,-0.271C0.563,-0.25 0.568,-0.224 0.568,-0.194C0.568,-0.155 0.558,-0.12 0.538,-0.088C0.518,-0.057 0.489,-0.033 0.451,-0.015C0.413,0.003 0.368,0.012 0.315,0.012Z" style="fill-rule:nonzero;"/>
                    </g>
                    <g transform="matrix(50,0,0,50,983.141751,1305)">
                        <rect x="0.096" y="-0.728" width="0.069" height="0.728" style="fill-rule:nonzero;"/>
                    </g>
                    <g transform="matrix(50,0,0,50,1046.243984,1305)">
                        <path d="M0.096,-0L0.096,-0.728L0.195,-0.728L0.398,-0.229C0.402,-0.218 0.407,-0.205 0.412,-0.191C0.418,-0.176 0.423,-0.161 0.428,-0.144C0.434,-0.128 0.439,-0.111 0.445,-0.095C0.45,-0.079 0.455,-0.063 0.459,-0.049L0.442,-0.049C0.446,-0.063 0.451,-0.078 0.457,-0.094C0.462,-0.11 0.467,-0.126 0.473,-0.143C0.479,-0.159 0.484,-0.175 0.489,-0.19C0.495,-0.205 0.499,-0.217 0.504,-0.229L0.705,-0.728L0.804,-0.728L0.804,-0L0.736,-0L0.736,-0.462C0.736,-0.476 0.736,-0.492 0.736,-0.509C0.736,-0.527 0.736,-0.544 0.737,-0.563C0.737,-0.582 0.737,-0.601 0.738,-0.62C0.738,-0.639 0.738,-0.657 0.738,-0.675L0.746,-0.675C0.74,-0.656 0.733,-0.636 0.726,-0.616C0.719,-0.596 0.712,-0.576 0.705,-0.557C0.699,-0.539 0.692,-0.521 0.686,-0.505C0.68,-0.488 0.674,-0.474 0.669,-0.462L0.481,-0L0.419,-0L0.229,-0.462C0.224,-0.474 0.219,-0.488 0.213,-0.504C0.207,-0.52 0.2,-0.537 0.194,-0.556C0.187,-0.574 0.18,-0.594 0.173,-0.614C0.166,-0.634 0.159,-0.655 0.152,-0.675L0.16,-0.675C0.16,-0.659 0.16,-0.641 0.161,-0.623C0.161,-0.604 0.161,-0.585 0.162,-0.566C0.162,-0.547 0.162,-0.529 0.162,-0.511C0.163,-0.493 0.163,-0.477 0.163,-0.462L0.163,-0L0.096,-0Z" style="fill-rule:nonzero;"/>
                    </g>
                    <g transform="matrix(50,0,0,50,1141.263524,1305)">
                        <path d="M0.096,-0L0.096,-0.728L0.334,-0.728C0.385,-0.728 0.428,-0.718 0.463,-0.698C0.498,-0.678 0.524,-0.651 0.542,-0.617C0.559,-0.583 0.568,-0.545 0.568,-0.502C0.568,-0.46 0.559,-0.421 0.542,-0.387C0.524,-0.353 0.498,-0.326 0.463,-0.306C0.428,-0.286 0.385,-0.276 0.334,-0.276L0.149,-0.276L0.149,-0.338L0.331,-0.338C0.369,-0.338 0.4,-0.345 0.425,-0.359C0.45,-0.374 0.468,-0.393 0.481,-0.418C0.493,-0.443 0.499,-0.471 0.499,-0.502C0.499,-0.534 0.493,-0.562 0.481,-0.586C0.468,-0.611 0.45,-0.63 0.425,-0.645C0.4,-0.659 0.368,-0.666 0.33,-0.666L0.166,-0.666L0.166,-0L0.096,-0Z" style="fill-rule:nonzero;"/>
                    </g>
                    <g transform="matrix(50,0,0,50,1222.660041,1305)">
                        <path d="M0.096,-0L0.096,-0.728L0.166,-0.728L0.166,-0.062L0.512,-0.062L0.512,-0L0.096,-0Z" style="fill-rule:nonzero;"/>
                    </g>
                    <g transform="matrix(50,0,0,50,1300.882701,1305)">
                        <rect x="0.096" y="-0.728" width="0.069" height="0.728" style="fill-rule:nonzero;"/>
                    </g>
                    <g transform="matrix(50,0,0,50,1363.984934,1305)">
                        <path d="M0.096,-0L0.096,-0.728L0.52,-0.728L0.52,-0.665L0.166,-0.665L0.166,-0.389L0.486,-0.389L0.486,-0.327L0.166,-0.327L0.166,-0L0.096,-0Z" style="fill-rule:nonzero;"/>
                    </g>
                    <g transform="matrix(50,0,0,50,1443.395748,1305)">
                        <rect x="0.096" y="-0.728" width="0.069" height="0.728" style="fill-rule:nonzero;"/>
                    </g>
                    <g transform="matrix(50,0,0,50,1506.497981,1305)">
                        <path d="M0.096,-0L0.096,-0.728L0.521,-0.728L0.521,-0.665L0.166,-0.665L0.166,-0.397L0.498,-0.397L0.498,-0.335L0.166,-0.335L0.166,-0.062L0.528,-0.062L0.528,-0L0.096,-0Z" style="fill-rule:nonzero;"/>
                    </g>
                    <g transform="matrix(50,0,0,50,1586.266879,1305)">
                        <path d="M0.311,-0L0.134,-0L0.134,-0.062L0.307,-0.062C0.369,-0.062 0.421,-0.074 0.463,-0.098C0.504,-0.123 0.536,-0.157 0.556,-0.203C0.577,-0.248 0.588,-0.302 0.588,-0.366C0.588,-0.428 0.578,-0.482 0.557,-0.526C0.537,-0.571 0.507,-0.605 0.467,-0.629C0.427,-0.653 0.378,-0.665 0.319,-0.665L0.132,-0.665L0.132,-0.728L0.324,-0.728C0.393,-0.728 0.453,-0.713 0.502,-0.684C0.551,-0.655 0.589,-0.614 0.616,-0.56C0.642,-0.506 0.655,-0.441 0.655,-0.366C0.655,-0.289 0.642,-0.224 0.615,-0.169C0.588,-0.115 0.549,-0.073 0.498,-0.044C0.446,-0.015 0.384,-0 0.311,-0ZM0.166,-0.728L0.166,-0L0.096,-0L0.096,-0.728L0.166,-0.728Z" style="fill-rule:nonzero;"/>
                    </g>
                </g>
            </g>
        </g>
    </g>
    <defs>
        <linearGradient id="_Linear1" x1="0" y1="0" x2="1" y2="0" gradientUnits="userSpaceOnUse" gradientTransform="matrix(142.8627,-147.7767,147.7767,142.8627,1485.3423,542.42627)"><stop offset="0" style="stop-color:rgb(0,40,184);stop-opacity:1"/><stop offset="1" style="stop-color:rgb(1,126,255);stop-opacity:1"/></linearGradient>
    </defs>
</svg>
